<svg width="161" height="41" viewBox="0 0 161 41" fill="none" xmlns="http://www.w3.org/2000/svg">
<path d="M59.0165 15.456H53.4485V12.912H67.7285V15.456H62.1365V30H59.0165V15.456ZM74.2815 17.592C74.7455 17.592 75.1455 17.656 75.4815 17.784L75.4575 20.52C74.9455 20.312 74.4175 20.208 73.8735 20.208C72.8495 20.208 72.0655 20.504 71.5215 21.096C70.9935 21.688 70.7295 22.472 70.7295 23.448V30H67.7535V21.312C67.7535 20.032 67.6895 18.888 67.5615 17.88H70.3695L70.6095 20.016C70.9135 19.232 71.3935 18.632 72.0495 18.216C72.7055 17.8 73.4495 17.592 74.2815 17.592ZM88.5095 17.88V30H85.5575V28.056C85.1895 28.728 84.6615 29.256 83.9735 29.64C83.2855 30.008 82.5015 30.192 81.6215 30.192C80.5655 30.192 79.6295 29.936 78.8135 29.424C77.9975 28.912 77.3655 28.184 76.9175 27.24C76.4695 26.296 76.2455 25.2 76.2455 23.952C76.2455 22.704 76.4695 21.6 76.9175 20.64C77.3815 19.664 78.0215 18.912 78.8375 18.384C79.6535 17.84 80.5815 17.568 81.6215 17.568C82.5015 17.568 83.2855 17.76 83.9735 18.144C84.6615 18.512 85.1895 19.032 85.5575 19.704V17.88H88.5095ZM82.4375 27.84C83.4295 27.84 84.1975 27.496 84.7415 26.808C85.2855 26.12 85.5575 25.152 85.5575 23.904C85.5575 22.624 85.2855 21.64 84.7415 20.952C84.1975 20.264 83.4215 19.92 82.4135 19.92C81.4215 19.92 80.6455 20.28 80.0855 21C79.5415 21.704 79.2695 22.688 79.2695 23.952C79.2695 25.2 79.5415 26.16 80.0855 26.832C80.6455 27.504 81.4295 27.84 82.4375 27.84ZM97.5129 14.712C96.2169 14.712 95.5689 15.424 95.5689 16.848V17.88H98.2809V20.136H95.5689V30H92.5689V20.136H90.2649V17.88H92.5689V16.704C92.5689 15.264 92.9289 14.16 93.6489 13.392C94.3849 12.608 95.4329 12.216 96.7929 12.216C97.5449 12.216 98.1769 12.312 98.6889 12.504V14.88C98.2409 14.768 97.8489 14.712 97.5129 14.712ZM112.064 17.88V30H109.112V28.056C108.744 28.728 108.216 29.256 107.528 29.64C106.84 30.008 106.056 30.192 105.176 30.192C104.12 30.192 103.184 29.936 102.368 29.424C101.552 28.912 100.92 28.184 100.472 27.24C100.024 26.296 99.8002 25.2 99.8002 23.952C99.8002 22.704 100.024 21.6 100.472 20.64C100.936 19.664 101.576 18.912 102.392 18.384C103.208 17.84 104.136 17.568 105.176 17.568C106.056 17.568 106.84 17.76 107.528 18.144C108.216 18.512 108.744 19.032 109.112 19.704V17.88H112.064ZM105.992 27.84C106.984 27.84 107.752 27.496 108.296 26.808C108.84 26.12 109.112 25.152 109.112 23.904C109.112 22.624 108.84 21.64 108.296 20.952C107.752 20.264 106.976 19.92 105.968 19.92C104.976 19.92 104.2 20.28 103.64 21C103.096 21.704 102.824 22.688 102.824 23.952C102.824 25.2 103.096 26.16 103.64 26.832C104.2 27.504 104.984 27.84 105.992 27.84ZM115.332 12.336H118.308V30H115.332V12.336ZM133.301 17.88V29.616C133.301 31.504 132.781 32.936 131.741 33.912C130.701 34.888 129.173 35.376 127.157 35.376C125.285 35.376 123.637 34.984 122.213 34.2L122.693 31.92C124.165 32.688 125.629 33.072 127.085 33.072C129.245 33.072 130.325 32 130.325 29.856V27.456C129.957 28.112 129.421 28.648 128.717 29.064C128.013 29.464 127.221 29.664 126.341 29.664C125.285 29.664 124.341 29.416 123.509 28.92C122.693 28.408 122.053 27.696 121.589 26.784C121.141 25.856 120.917 24.8 120.917 23.616C120.917 22.432 121.141 21.384 121.589 20.472C122.053 19.544 122.693 18.832 123.509 18.336C124.341 17.824 125.285 17.568 126.341 17.568C127.237 17.568 128.029 17.76 128.717 18.144C129.421 18.512 129.957 19.032 130.325 19.704V17.88H133.301ZM127.133 27.312C128.125 27.312 128.901 26.984 129.461 26.328C130.037 25.672 130.325 24.768 130.325 23.616C130.325 22.464 130.045 21.56 129.485 20.904C128.925 20.248 128.141 19.92 127.133 19.92C126.141 19.92 125.357 20.248 124.781 20.904C124.221 21.56 123.941 22.464 123.941 23.616C123.941 24.768 124.221 25.672 124.781 26.328C125.357 26.984 126.141 27.312 127.133 27.312ZM148.135 17.88V30H145.183V28.056C144.815 28.728 144.287 29.256 143.599 29.64C142.911 30.008 142.127 30.192 141.247 30.192C140.191 30.192 139.255 29.936 138.439 29.424C137.623 28.912 136.991 28.184 136.543 27.24C136.095 26.296 135.871 25.2 135.871 23.952C135.871 22.704 136.095 21.6 136.543 20.64C137.007 19.664 137.647 18.912 138.463 18.384C139.279 17.84 140.207 17.568 141.247 17.568C142.127 17.568 142.911 17.76 143.599 18.144C144.287 18.512 144.815 19.032 145.183 19.704V17.88H148.135ZM142.063 27.84C143.055 27.84 143.823 27.496 144.367 26.808C144.911 26.12 145.183 25.152 145.183 23.904C145.183 22.624 144.911 21.64 144.367 20.952C143.823 20.264 143.047 19.92 142.039 19.92C141.047 19.92 140.271 20.28 139.711 21C139.167 21.704 138.895 22.688 138.895 23.952C138.895 25.2 139.167 26.16 139.711 26.832C140.271 27.504 141.055 27.84 142.063 27.84ZM157.93 17.592C158.394 17.592 158.794 17.656 159.13 17.784L159.106 20.52C158.594 20.312 158.066 20.208 157.522 20.208C156.498 20.208 155.714 20.504 155.17 21.096C154.642 21.688 154.378 22.472 154.378 23.448V30H151.402V21.312C151.402 20.032 151.338 18.888 151.21 17.88H154.018L154.258 20.016C154.562 19.232 155.042 18.632 155.698 18.216C156.354 17.8 157.098 17.592 157.93 17.592Z" fill="white"/>
<ellipse cx="20.6407" cy="20.5" rx="20.5125" ry="20.5" fill="white"/>
<path d="M19.4801 15.244H13.4481V12.488H28.9181V15.244H22.8601V31H19.4801V15.244Z" fill="#5B9BF3"/>
</svg>
