<svg width="160" height="40" viewBox="0 0 160 40" fill="none" xmlns="http://www.w3.org/2000/svg">
<path d="M58.856 29.8498V15.4738H53.264V12.9298H67.544V15.4738H61.952V29.8498H58.856ZM67.5924 29.8498V20.8258C67.5924 20.3138 67.5764 19.7938 67.5444 19.2658C67.5284 18.7378 67.4884 18.2258 67.4244 17.7298H70.3284L70.6644 21.0418H70.1844C70.3444 20.2418 70.6084 19.5778 70.9764 19.0498C71.3604 18.5218 71.8244 18.1298 72.3684 17.8738C72.9124 17.6178 73.5044 17.4898 74.1444 17.4898C74.4324 17.4898 74.6644 17.5058 74.8404 17.5378C75.0164 17.5538 75.1924 17.5938 75.3684 17.6578L75.3444 20.2978C75.0404 20.1698 74.7764 20.0898 74.5524 20.0578C74.3444 20.0258 74.0804 20.0098 73.7604 20.0098C73.0724 20.0098 72.4884 20.1538 72.0084 20.4418C71.5444 20.7298 71.1924 21.1298 70.9524 21.6418C70.7284 22.1538 70.6164 22.7378 70.6164 23.3938V29.8498H67.5924ZM81.6011 30.0898C80.5451 30.0898 79.6171 29.8418 78.8171 29.3458C78.0171 28.8338 77.3931 28.1058 76.9451 27.1618C76.4971 26.2178 76.2731 25.0898 76.2731 23.7778C76.2731 22.4658 76.4971 21.3458 76.9451 20.4178C77.3931 19.4738 78.0171 18.7538 78.8171 18.2578C79.6171 17.7458 80.5451 17.4898 81.6011 17.4898C82.6251 17.4898 83.5211 17.7458 84.2891 18.2578C85.0731 18.7538 85.5931 19.4258 85.8491 20.2738H85.5851L85.8491 17.7298H88.7291C88.6811 18.2258 88.6331 18.7298 88.5851 19.2418C88.5531 19.7538 88.5371 20.2578 88.5371 20.7538V29.8498H85.5611L85.5371 27.3538H85.8251C85.5691 28.1858 85.0491 28.8498 84.2651 29.3458C83.4811 29.8418 82.5931 30.0898 81.6011 30.0898ZM82.4411 27.7858C83.3851 27.7858 84.1451 27.4578 84.7211 26.8018C85.2971 26.1298 85.5851 25.1218 85.5851 23.7778C85.5851 22.4338 85.2971 21.4338 84.7211 20.7778C84.1451 20.1218 83.3851 19.7938 82.4411 19.7938C81.4971 19.7938 80.7371 20.1218 80.1611 20.7778C79.5851 21.4338 79.2971 22.4338 79.2971 23.7778C79.2971 25.1218 79.5771 26.1298 80.1371 26.8018C80.7131 27.4578 81.4811 27.7858 82.4411 27.7858ZM92.6199 29.8498V19.9858H90.2919V17.7298H93.4599L92.6199 18.4978V16.6498C92.6199 15.1458 93.0039 14.0098 93.7719 13.2418C94.5559 12.4738 95.6999 12.0898 97.2039 12.0898C97.5559 12.0898 97.9239 12.1138 98.3079 12.1618C98.7079 12.2098 99.0519 12.2978 99.3399 12.4258V14.7778C99.1319 14.6978 98.8839 14.6338 98.5959 14.5858C98.3079 14.5378 98.0279 14.5138 97.7559 14.5138C97.3399 14.5138 96.9639 14.5938 96.6279 14.7538C96.3079 14.9138 96.0519 15.1618 95.8599 15.4978C95.6839 15.8178 95.5959 16.2498 95.5959 16.7938V18.2578L95.1639 17.7298H98.7879V19.9858H95.6199V29.8498H92.6199ZM105.203 30.0898C104.147 30.0898 103.219 29.8418 102.419 29.3458C101.619 28.8338 100.995 28.1058 100.547 27.1618C100.099 26.2178 99.8746 25.0898 99.8746 23.7778C99.8746 22.4658 100.099 21.3458 100.547 20.4178C100.995 19.4738 101.619 18.7538 102.419 18.2578C103.219 17.7458 104.147 17.4898 105.203 17.4898C106.227 17.4898 107.123 17.7458 107.891 18.2578C108.675 18.7538 109.195 19.4258 109.451 20.2738H109.187L109.451 17.7298H112.331C112.283 18.2258 112.235 18.7298 112.187 19.2418C112.155 19.7538 112.139 20.2578 112.139 20.7538V29.8498H109.163L109.139 27.3538H109.427C109.171 28.1858 108.651 28.8498 107.867 29.3458C107.083 29.8418 106.195 30.0898 105.203 30.0898ZM106.043 27.7858C106.987 27.7858 107.747 27.4578 108.323 26.8018C108.899 26.1298 109.187 25.1218 109.187 23.7778C109.187 22.4338 108.899 21.4338 108.323 20.7778C107.747 20.1218 106.987 19.7938 106.043 19.7938C105.099 19.7938 104.339 20.1218 103.763 20.7778C103.187 21.4338 102.899 22.4338 102.899 23.7778C102.899 25.1218 103.179 26.1298 103.739 26.8018C104.315 27.4578 105.083 27.7858 106.043 27.7858ZM115.405 29.8498V12.1858H118.405V29.8498H115.405ZM127.279 35.2258C126.159 35.2258 125.143 35.1058 124.231 34.8658C123.335 34.6258 122.535 34.2578 121.831 33.7618L122.479 31.6018C122.943 31.9058 123.423 32.1538 123.919 32.3458C124.415 32.5378 124.927 32.6818 125.455 32.7778C125.983 32.8738 126.519 32.9218 127.063 32.9218C128.183 32.9218 129.015 32.6418 129.559 32.0818C130.119 31.5378 130.399 30.7538 130.399 29.7298V26.8258H130.639C130.383 27.6578 129.863 28.3218 129.079 28.8178C128.311 29.3138 127.423 29.5618 126.415 29.5618C125.327 29.5618 124.375 29.3218 123.559 28.8418C122.759 28.3458 122.135 27.6418 121.687 26.7298C121.239 25.8178 121.015 24.7458 121.015 23.5138C121.015 22.2818 121.239 21.2178 121.687 20.3218C122.135 19.4098 122.759 18.7138 123.559 18.2338C124.375 17.7378 125.327 17.4898 126.415 17.4898C127.439 17.4898 128.327 17.7378 129.079 18.2338C129.847 18.7138 130.359 19.3698 130.615 20.2018L130.399 20.0578L130.639 17.7298H133.543C133.479 18.2258 133.431 18.7298 133.399 19.2418C133.367 19.7538 133.351 20.2578 133.351 20.7538V29.3698C133.351 31.2738 132.831 32.7218 131.791 33.7138C130.767 34.7218 129.263 35.2258 127.279 35.2258ZM127.231 27.2578C128.191 27.2578 128.951 26.9378 129.511 26.2978C130.087 25.6418 130.375 24.7138 130.375 23.5138C130.375 22.3138 130.087 21.3938 129.511 20.7538C128.951 20.1138 128.191 19.7938 127.231 19.7938C126.255 19.7938 125.479 20.1138 124.903 20.7538C124.327 21.3938 124.039 22.3138 124.039 23.5138C124.039 24.7138 124.327 25.6418 124.903 26.2978C125.479 26.9378 126.255 27.2578 127.231 27.2578ZM141.273 30.0898C140.217 30.0898 139.289 29.8418 138.489 29.3458C137.689 28.8338 137.065 28.1058 136.617 27.1618C136.169 26.2178 135.945 25.0898 135.945 23.7778C135.945 22.4658 136.169 21.3458 136.617 20.4178C137.065 19.4738 137.689 18.7538 138.489 18.2578C139.289 17.7458 140.217 17.4898 141.273 17.4898C142.297 17.4898 143.193 17.7458 143.961 18.2578C144.745 18.7538 145.265 19.4258 145.521 20.2738H145.257L145.521 17.7298H148.401C148.353 18.2258 148.305 18.7298 148.257 19.2418C148.225 19.7538 148.209 20.2578 148.209 20.7538V29.8498H145.233L145.209 27.3538H145.497C145.241 28.1858 144.721 28.8498 143.937 29.3458C143.153 29.8418 142.265 30.0898 141.273 30.0898ZM142.113 27.7858C143.057 27.7858 143.817 27.4578 144.393 26.8018C144.969 26.1298 145.257 25.1218 145.257 23.7778C145.257 22.4338 144.969 21.4338 144.393 20.7778C143.817 20.1218 143.057 19.7938 142.113 19.7938C141.169 19.7938 140.409 20.1218 139.833 20.7778C139.257 21.4338 138.969 22.4338 138.969 23.7778C138.969 25.1218 139.249 26.1298 139.809 26.8018C140.385 27.4578 141.153 27.7858 142.113 27.7858ZM151.452 29.8498V20.8258C151.452 20.3138 151.436 19.7938 151.404 19.2658C151.388 18.7378 151.348 18.2258 151.284 17.7298H154.188L154.524 21.0418H154.044C154.204 20.2418 154.468 19.5778 154.836 19.0498C155.22 18.5218 155.684 18.1298 156.228 17.8738C156.772 17.6178 157.364 17.4898 158.004 17.4898C158.292 17.4898 158.524 17.5058 158.7 17.5378C158.876 17.5538 159.052 17.5938 159.228 17.6578L159.204 20.2978C158.9 20.1698 158.636 20.0898 158.412 20.0578C158.204 20.0258 157.94 20.0098 157.62 20.0098C156.932 20.0098 156.348 20.1538 155.868 20.4418C155.404 20.7298 155.052 21.1298 154.812 21.6418C154.588 22.1538 154.476 22.7378 154.476 23.3938V29.8498H151.452Z" fill="#233348"/>
<ellipse cx="20.5" cy="19.9868" rx="20.5" ry="19.9868" fill="#458FF6"/>
<path d="M19.344 30.8748V15.3008H13.286V12.5448H28.756V15.3008H22.698V30.8748H19.344Z" fill="white"/>
</svg>
